<svg width="50" height="48" viewBox="0 0 50 48" fill="none" xmlns="http://www.w3.org/2000/svg">
<rect y="-2" width="50" height="50" rx="15" fill="#F2DECB"/>
<path fill-rule="evenodd" clip-rule="evenodd" d="M26.4893 14.0027C22.9749 10.4911 17.7655 9.98562 14.8766 12.8777C11.9862 15.7682 12.4917 20.9778 16.0001 24.4908C16.9361 25.4269 18.0145 26.1424 19.153 26.6554C19.5265 24.4848 20.5975 22.3983 22.2234 20.6853C21.685 20.4933 21.133 20.3313 20.557 20.1738C17.1461 19.2378 15.4511 16.3922 15.0551 13.0562C15.3826 13.45 15.6808 13.8631 15.9781 14.275C16.555 15.0742 17.1286 15.8688 17.9065 16.5092C19.1168 17.5058 20.4452 17.8904 21.8986 18.3113C21.9547 18.3275 22.011 18.3439 22.0674 18.3602C22.7559 18.5597 23.3544 18.8553 23.9034 19.2003C25.3464 18.1457 26.9738 17.4437 28.6538 17.1542C28.1423 16.0157 27.4253 14.9387 26.4893 14.0027ZM20.5465 27.4894C20.77 25.3159 21.823 23.1903 23.5104 21.5028C27.0248 17.9912 32.2342 17.4842 35.1232 20.3778C38.0136 23.2683 37.5096 28.4779 33.9967 31.991C32.3092 33.6785 30.1838 34.7315 28.0103 34.9565C27.7208 34.985 27.4343 35 27.1538 35C25.2849 35 23.6154 34.3445 22.3854 33.1145C20.9695 31.7 20.3155 29.7019 20.5465 27.4894ZM25.6869 29.2729C26.8388 28.3939 28.0853 28.0459 29.4413 27.6754C32.8522 26.7394 34.5457 23.8938 34.9432 20.5578C34.6184 20.9494 34.3224 21.3598 34.0273 21.7688C33.4487 22.5709 32.8735 23.3681 32.0917 24.0108C30.8778 25.009 29.5463 25.3943 28.0864 25.8168L27.9308 25.8619C24.5934 26.8309 22.9434 29.6524 22.5624 32.936C22.8912 32.541 23.1924 32.1309 23.492 31.7229C24.1423 30.8374 24.7852 29.962 25.6869 29.2729Z" fill="#0E8784"/>
</svg>
